<svg xmlns="http://www.w3.org/2000/svg" version="1.1" xmlns:xlink="http://www.w3.org/1999/xlink" xmlns:svgjs="http://svgjs.dev/svgjs" width="1500" height="935" viewBox="0 0 1500 935"><g transform="matrix(1,0,0,1,-0.9090909090909918,0.3785425101214628)"><svg viewBox="0 0 396 247" data-background-color="#ffffff" preserveAspectRatio="xMidYMid meet" height="935" width="1500" xmlns="http://www.w3.org/2000/svg" xmlns:xlink="http://www.w3.org/1999/xlink"><g id="tight-bounds" transform="matrix(1,0,0,1,0.2400000000000091,-0.09999999999999432)"><svg viewBox="0 0 395.52 247.2" height="247.2" width="395.52"><g><svg></svg></g><g><svg viewBox="0 0 395.52 247.2" height="247.2" width="395.52"><g transform="matrix(1,0,0,1,75.54432000000001,81.0279183122363)"><svg viewBox="0 0 244.43135999999996 85.1441633755274" height="85.1441633755274" width="244.43135999999996"><g><svg viewBox="0 0 244.43135999999996 85.1441633755274" height="85.1441633755274" width="244.43135999999996"><g><svg viewBox="0 0 244.43136 85.14416337552741" height="85.1441633755274" width="244.43135999999996"><g><svg viewBox="0 0 244.43136 85.14416337552741" height="85.14416337552741" width="244.43136"><g id="textblocktransform"><svg viewBox="0 0 244.43136 85.14416337552741" height="85.14416337552741" width="244.43136" id="textblock"><g><svg viewBox="0 0 244.43136 85.14416337552741" height="85.14416337552741" width="244.43136"><g transform="matrix(1,0,0,1,0,0)"><svg width="244.43136" viewBox="4.15 -36.5 106.64 37.15" height="85.14416337552741" data-palette-color="#805dd5"><path d="M28.9-3.3Q29.2-2.7 29.2-2L29.2-2Q29.2-0.8 28.2-0.13 27.2 0.55 26.2 0.55L26.2 0.55Q24.35 0.55 23.28-0.63 22.2-1.8 21.15-4.4L21.15-4.4 18.85-10.3Q18.15-12 17.57-12.95 17-13.9 15.8-14.58 14.6-15.25 12.55-15.25L12.55-15.25 8.85-15.3 8.85-5.55Q8.85-4.35 9-2.8 9.15-1.25 9.5-0.35L9.5-0.35Q9.15 0 8.55 0.28 7.95 0.55 7.2 0.55L7.2 0.55Q6.15 0.55 5.5-0.05 4.85-0.65 4.8-1.65L4.8-1.65 4.8-28.85Q4.8-30.05 4.65-31.63 4.5-33.2 4.15-34.2L4.15-34.2Q6.25-35.3 11.5-35.3L11.5-35.3Q18.65-35.3 22.05-33.08 25.45-30.85 25.45-25.85L25.45-25.85Q25.45-22.25 23.38-19.75 21.3-17.25 17.8-16.35L17.8-16.35Q19.55-15.85 20.63-14.58 21.7-13.3 22.6-11.3L22.6-11.3 25.1-5.4Q25.7-3.95 26.25-3.33 26.8-2.7 27.45-2.65L27.45-2.65Q28.35-2.65 28.9-3.3L28.9-3.3ZM8.85-17.1L12.75-17.05Q16.4-17.15 18.73-19.45 21.05-21.75 21.05-25.5L21.05-25.5Q21.05-29.6 18.82-31.55 16.6-33.5 11.7-33.5L11.7-33.5Q9.75-33.5 8.85-33.35L8.85-33.35 8.85-17.1ZM52.3-6.45Q53.05-6.2 53.05-5.3L53.05-5.3Q53.05-4.8 52.75-3.95L52.75-3.95Q51.8-1.75 49.42-0.55 47.05 0.65 43.85 0.65L43.85 0.65Q38.35 0.65 35.25-2.78 32.15-6.2 32.15-12.55L32.15-12.55Q32.15-18.85 35.22-22.45 38.3-26.05 44.05-26.05L44.05-26.05Q48.2-26.05 50.7-24.18 53.2-22.3 53.2-18.85L53.2-18.85Q53.2-15.15 50.2-13.2 47.2-11.25 41.85-11.25L41.85-11.25Q38.9-11.25 36.45-11.6L36.45-11.6Q36.75-6.55 38.97-4.33 41.2-2.1 44.8-2.1L44.8-2.1Q47.55-2.1 49.55-3.23 51.55-4.35 52.3-6.45L52.3-6.45ZM43.9-24.25Q40.5-24.25 38.47-21.43 36.45-18.6 36.4-13.3L36.4-13.3Q38.8-13.1 40.3-13.05L40.3-13.05Q44.3-13.05 46.62-14.48 48.95-15.9 48.95-19.35L48.95-19.35Q48.95-22 47.5-23.13 46.05-24.25 43.9-24.25L43.9-24.25ZM81.9-3.45Q82.45-2.7 82.45-1.85L82.45-1.85Q82.45-0.85 81.57-0.23 80.7 0.4 79.34 0.4L79.34 0.4Q75.25 0.4 75.25-6L75.25-6 75.25-6.35Q74.05-3.05 71.82-1.2 69.59 0.65 66.3 0.65L66.3 0.65Q61.5 0.65 59.6-2.9 57.7-6.45 57.7-11.5L57.7-11.5Q57.7-18.4 60.42-22.23 63.15-26.05 68.2-26.05L68.2-26.05Q70.75-26.05 72.52-25.03 74.3-24 75.09-22.05L75.09-22.05 75.05-28.75Q75.05-33.35 74.4-35.6L74.4-35.6Q75.3-36.5 76.7-36.5L76.7-36.5Q77.75-36.5 78.4-35.93 79.05-35.35 79.05-34.3L79.05-34.3 79-5.25Q79-2.7 80.55-2.7L80.55-2.7Q81.5-2.7 81.9-3.45L81.9-3.45ZM67.3-1.8Q69.7-1.8 71.45-3.6 73.2-5.4 74.09-8.45 75-11.5 75-15.2L75-15.2Q75-23.7 68.84-23.7L68.84-23.7Q65.5-23.7 63.72-20.65 61.95-17.6 61.95-11.65L61.95-11.65Q61.95-7.2 63.07-4.5 64.2-1.8 67.3-1.8L67.3-1.8ZM110.24-3.65Q110.79-2.9 110.79-2.1L110.79-2.1Q110.79-1 109.77-0.25 108.74 0.5 107.29 0.5L107.29 0.5Q105.14 0.5 104.04-1 102.94-2.5 102.94-5.7L102.94-5.7 102.94-7.15Q101.29-3.6 98.47-1.53 95.64 0.55 92.29 0.55L92.29 0.55Q89.39 0.55 87.72-1.03 86.04-2.6 86.04-5.25L86.04-5.25Q86.04-8.2 88.29-10.25 90.54-12.3 94.34-13.35L94.34-13.35Q97.69-14.25 101.29-14.25L101.29-14.25Q102.29-14.25 102.74-14.2L102.74-14.2 102.74-15.5Q102.74-19.95 101.27-22.1 99.79-24.25 96.39-24.25L96.39-24.25Q94.19-24.25 92.69-23.3 91.19-22.35 91.19-20.2L91.19-20.2Q91.19-19.05 91.72-18.05 92.24-17.05 93.34-16.65L93.34-16.65Q92.54-15.65 90.94-15.65L90.94-15.65Q89.29-15.65 88.24-16.98 87.19-18.3 87.19-20.05L87.19-20.05Q87.19-22.95 89.74-24.5 92.29-26.05 96.74-26.05L96.74-26.05Q101.89-26.05 104.34-23.4 106.79-20.75 106.79-15.25L106.79-15.25 106.79-5.25Q106.79-2.6 108.59-2.6L108.59-2.6Q108.99-2.6 109.49-2.88 109.99-3.15 110.24-3.65L110.24-3.65ZM93.89-2.25Q95.89-2.25 97.97-3.73 100.04-5.2 101.42-7.6 102.79-10 102.84-12.6L102.84-12.6 101.69-12.65Q99.94-12.65 98.14-12.38 96.34-12.1 95.09-11.6L95.09-11.6Q92.89-10.8 91.64-9.4 90.39-8 90.39-6.1L90.39-6.1Q90.39-4.45 91.24-3.35 92.09-2.25 93.89-2.25L93.89-2.25Z" opacity="1" transform="matrix(1,0,0,1,0,0)" fill="#805dd5" class="wordmark-text-0" data-fill-palette-color="primary" id="text-0"></path></svg></g></svg></g></svg></g></svg></g></svg></g></svg></g></svg></g><g><path d="M245.816 0c68.262 0 123.6 55.338 123.6 123.6 0 68.262-55.338 123.6-123.6 123.6-49.443 0-92.105-29.031-111.871-70.978h4.26c19.48 39.761 60.348 67.138 107.611 67.139 66.142 0 119.761-53.619 119.76-119.761 0-66.142-53.619-119.761-119.76-119.761-47.262 0-88.13 27.377-107.611 67.139l-4.26 0c19.765-41.946 62.428-70.978 111.871-70.978z" fill="#805dd5" stroke="transparent" data-fill-palette-color="tertiary"></path></g></svg></g><defs></defs></svg><rect width="395.52" height="247.2" fill="none" stroke="none" visibility="hidden"></rect></g></svg></g></svg>